<svg width="252" height="68" viewBox="0 0 252 68" fill="none" xmlns="http://www.w3.org/2000/svg">
<path d="M19.1918 22.1634L55.7591 13.0864L45.3854 51.2098L9.85547 58.7307L19.1918 22.1634Z" fill="#00BEE5"/>
<path d="M9.33633 13.346L45.9036 4.26904L35.5299 42.3924L0 49.9133L9.33633 13.346Z" fill="#009ECE"/>
<path d="M77.0856 29C76.2978 29 75.6373 28.803 75.1044 28.4091C74.5714 28.0152 74.2007 27.3084 73.9921 26.2888L69.682 4.66896H74.5482L77.5375 21.944H77.607L82.647 5.95503H84.3849C84.9642 5.95503 85.4624 6.10565 85.8795 6.40689C86.3198 6.70814 86.6558 7.25269 86.8875 8.04055L91.1281 21.9092H91.1976L94.1869 4.66896H99.0531L94.7082 26.2888C94.5229 27.2157 94.1753 27.8993 93.6655 28.3396C93.1789 28.7799 92.5069 29 91.6495 29H89.6335L84.4544 12.3159H84.3849L79.1016 29H77.0856ZM107.076 29.2781C105.616 29.2781 104.319 29 103.183 28.4439C102.071 27.8646 101.202 27.0535 100.576 26.0108C99.9737 24.968 99.6725 23.763 99.6725 22.3959V18.3291C99.6725 16.9619 99.9853 15.757 100.611 14.7142C101.237 13.6483 102.106 12.8257 103.218 12.2463C104.353 11.667 105.651 11.3774 107.111 11.3774H110.239C111.699 11.3774 112.985 11.667 114.097 12.2463C115.233 12.8257 116.113 13.6483 116.739 14.7142C117.365 15.757 117.677 16.9619 117.677 18.3291V22.3959C117.677 23.763 117.365 24.968 116.739 26.0108C116.113 27.0535 115.233 27.8646 114.097 28.4439C112.985 29 111.687 29.2781 110.204 29.2781H107.076ZM110.135 25.2113C110.992 25.2113 111.676 24.9217 112.186 24.3423C112.695 23.7399 112.95 22.9636 112.95 22.0135V18.6419C112.95 17.6919 112.695 16.9272 112.186 16.3479C111.676 15.7454 111.004 15.4441 110.17 15.4441H107.18C106.346 15.4441 105.674 15.7454 105.164 16.3479C104.655 16.9272 104.4 17.6919 104.4 18.6419V22.0135C104.4 22.9636 104.655 23.7399 105.164 24.3423C105.674 24.9217 106.335 25.2113 107.146 25.2113H110.135ZM121.006 11.6554H125.385V13.88C125.825 13.208 126.451 12.6634 127.262 12.2463C128.096 11.8061 128.965 11.5859 129.869 11.5859H132.233V15.6874H129.869C128.641 15.6874 127.644 16.0582 126.88 16.7997C126.115 17.5412 125.733 18.4913 125.733 19.6499V29H121.006V11.6554ZM146.303 29L140.881 22.0483L139.039 23.8905V29H134.312V4.66896H139.039V18.5724L145.886 11.6554H151.378L143.94 19.0243L151.656 29H146.303ZM159.201 29.2781C157.092 29.2781 155.401 28.7219 154.126 27.6097C152.852 26.4974 152.214 25.0375 152.214 23.2301H156.872C156.872 23.8557 157.081 24.3655 157.498 24.7594C157.938 25.1302 158.506 25.3156 159.201 25.3156H162.329C163.72 25.3156 164.415 24.9332 164.415 24.1686V23.5777C164.415 23.3459 164.299 23.1374 164.067 22.952C163.835 22.7434 163.523 22.6044 163.129 22.5349L157.115 21.4921C155.702 21.2604 154.578 20.7622 153.744 19.9975C152.933 19.2097 152.527 18.2943 152.527 17.2516V16.1046C152.527 14.6215 153.13 13.4629 154.335 12.6287C155.563 11.7945 157.266 11.3774 159.444 11.3774H162.155C164.102 11.3774 165.666 11.8988 166.848 12.9415C168.053 13.9611 168.655 15.3167 168.655 17.0083H163.998C163.998 16.4985 163.824 16.093 163.476 15.7917C163.152 15.4905 162.712 15.3399 162.155 15.3399H159.514C158.008 15.3399 157.254 15.6874 157.254 16.3826V16.9388C157.254 17.1937 157.347 17.4138 157.533 17.5992C157.741 17.7614 158.031 17.8772 158.402 17.9468L164.728 19.0938C166.048 19.3255 167.114 19.8237 167.925 20.5884C168.736 21.3299 169.142 22.1757 169.142 23.1258V24.3771C169.142 25.8833 168.516 27.0767 167.265 27.9572C166.037 28.8378 164.392 29.2781 162.329 29.2781H159.201ZM172.125 11.6554H176.505V13.5324C176.991 12.8836 177.605 12.3622 178.347 11.9683C179.112 11.5743 179.853 11.3774 180.572 11.3774H182.761C184.152 11.3774 185.38 11.667 186.446 12.2463C187.512 12.8025 188.334 13.5903 188.914 14.6099C189.493 15.6295 189.783 16.7997 189.783 18.1206V22.0135C189.783 23.4502 189.493 24.7247 188.914 25.837C188.334 26.9261 187.523 27.7719 186.481 28.3743C185.438 28.9768 184.233 29.2781 182.866 29.2781H180.606C179.957 29.2781 179.285 29.1274 178.59 28.8262C177.918 28.525 177.339 28.1194 176.852 27.6097V35.9517H172.125V11.6554ZM182.24 25.2113C183.097 25.2113 183.781 24.8869 184.291 24.2381C184.801 23.5892 185.055 22.7319 185.055 21.6659V18.4681C185.055 17.5644 184.789 16.8345 184.256 16.2783C183.746 15.7222 183.063 15.4441 182.205 15.4441H180.085C179.413 15.4441 178.776 15.7222 178.173 16.2783C177.571 16.8113 177.13 17.5065 176.852 18.3639V21.805C176.968 22.8246 177.316 23.6472 177.895 24.2728C178.498 24.8985 179.228 25.2113 180.085 25.2113H182.24ZM198.594 29.2781C196.787 29.2781 195.327 28.8262 194.215 27.9225C193.103 27.0188 192.546 25.8254 192.546 24.3423V23.0563C192.546 21.5964 193.126 20.4262 194.284 19.5457C195.443 18.6419 196.972 18.1901 198.872 18.1901H200.993C201.595 18.1901 202.244 18.2712 202.939 18.4334C203.634 18.5956 204.272 18.8157 204.851 19.0938V17.2863C204.851 16.707 204.654 16.2436 204.26 15.896C203.889 15.5252 203.391 15.3399 202.765 15.3399H199.776C199.127 15.3399 198.606 15.4905 198.212 15.7917C197.818 16.093 197.621 16.4985 197.621 17.0083H193.033C193.033 15.3167 193.647 13.9611 194.875 12.9415C196.127 11.8988 197.76 11.3774 199.776 11.3774H202.765C204.805 11.3774 206.45 11.9219 207.701 13.011C208.952 14.077 209.578 15.5021 209.578 17.2863V29H205.199V26.9145C204.642 27.6328 203.959 28.2121 203.148 28.6524C202.337 29.0695 201.537 29.2781 200.749 29.2781H198.594ZM201.097 25.6632C201.954 25.6632 202.719 25.443 203.391 25.0028C204.063 24.5625 204.55 23.9716 204.851 23.2301V22.6392C204.48 22.3611 203.959 22.141 203.287 21.9788C202.638 21.8166 201.943 21.7354 201.201 21.7354H199.012C198.455 21.7354 198.004 21.8745 197.656 22.1526C197.308 22.4306 197.135 22.8014 197.135 23.2648V24.1686C197.135 24.6088 197.32 24.968 197.691 25.2461C198.085 25.5241 198.594 25.6632 199.22 25.6632H201.097ZM220.109 29.2781C218.65 29.2781 217.352 28.9884 216.217 28.4091C215.104 27.8298 214.235 27.0188 213.61 25.976C213.007 24.9332 212.706 23.7283 212.706 22.3611V18.2943C212.706 16.9272 213.007 15.7222 213.61 14.6794C214.235 13.6367 215.104 12.8257 216.217 12.2463C217.329 11.667 218.615 11.3774 220.075 11.3774H222.821C224.211 11.3774 225.439 11.6554 226.505 12.2116C227.571 12.7677 228.394 13.5556 228.973 14.5752C229.552 15.5716 229.842 16.7302 229.842 18.051H225.149C225.149 17.2632 224.929 16.6375 224.489 16.1741C224.072 15.6874 223.516 15.4441 222.821 15.4441H220.144C219.333 15.4441 218.673 15.7454 218.163 16.3479C217.676 16.9272 217.433 17.6919 217.433 18.6419V22.0135C217.433 22.9636 217.688 23.7399 218.198 24.3423C218.708 24.9217 219.368 25.2113 220.179 25.2113H222.855C223.597 25.2113 224.188 24.9448 224.628 24.4119C225.092 23.8789 225.323 23.1721 225.323 22.2916H230.016C230.016 24.4003 229.355 26.0919 228.034 27.3663C226.737 28.6408 225.01 29.2781 222.855 29.2781H220.109ZM239.594 29.2781C238.134 29.2781 236.837 29.0116 235.701 28.4786C234.589 27.9225 233.72 27.1578 233.094 26.1846C232.469 25.1881 232.156 24.0527 232.156 22.7782V18.2943C232.156 16.9272 232.469 15.7222 233.094 14.6794C233.72 13.6367 234.589 12.8257 235.701 12.2463C236.837 11.667 238.134 11.3774 239.594 11.3774H242.375C244.599 11.3774 246.384 12.003 247.728 13.2543C249.072 14.5057 249.744 16.1741 249.744 18.2596V21.944H236.883V22.7782C236.883 23.5429 237.126 24.157 237.613 24.6204C238.1 25.0839 238.76 25.3156 239.594 25.3156H242.305C243.116 25.3156 243.765 25.1418 244.252 24.7942C244.762 24.4234 245.016 23.9484 245.016 23.3691H249.674C249.674 24.5277 249.361 25.5589 248.736 26.4626C248.11 27.3663 247.229 28.0615 246.094 28.5481C244.982 29.0348 243.696 29.2781 242.236 29.2781H239.594ZM245.086 18.5377V18.2596C245.086 17.3559 244.843 16.6375 244.356 16.1046C243.869 15.5484 243.221 15.2703 242.41 15.2703H239.594C238.76 15.2703 238.088 15.56 237.578 16.1393C237.068 16.7186 236.813 17.4833 236.813 18.4334V18.5377H245.086ZM89.9162 35.669H94.1915L102.151 50.1286L109.937 35.669H114.212V60H109.52V44.6019L104.411 53.8477C104.063 54.4734 103.704 54.9252 103.333 55.2033C102.985 55.4582 102.58 55.5857 102.116 55.5857H100.796L94.6086 44.6019V60H89.9162V35.669ZM123.884 60.2781C122.076 60.2781 120.616 59.8262 119.504 58.9225C118.392 58.0188 117.836 56.8254 117.836 55.3423V54.0563C117.836 52.5964 118.415 51.4262 119.574 50.5457C120.732 49.6419 122.262 49.1901 124.162 49.1901H126.282C126.885 49.1901 127.533 49.2712 128.229 49.4334C128.924 49.5956 129.561 49.8157 130.14 50.0938V48.2863C130.14 47.707 129.943 47.2436 129.549 46.896C129.179 46.5252 128.68 46.3399 128.055 46.3399H125.066C124.417 46.3399 123.895 46.4905 123.501 46.7917C123.107 47.093 122.911 47.4985 122.911 48.0083H118.322C118.322 46.3167 118.936 44.9611 120.165 43.9415C121.416 42.8988 123.05 42.3774 125.066 42.3774H128.055C130.094 42.3774 131.739 42.9219 132.991 44.011C134.242 45.077 134.867 46.5021 134.867 48.2863V60H130.488V57.9145C129.932 58.6328 129.248 59.2121 128.437 59.6524C127.626 60.0695 126.827 60.2781 126.039 60.2781H123.884ZM126.386 56.6632C127.244 56.6632 128.008 56.443 128.68 56.0028C129.352 55.5625 129.839 54.9716 130.14 54.2301V53.6392C129.77 53.3611 129.248 53.141 128.576 52.9788C127.927 52.8166 127.232 52.7354 126.491 52.7354H124.301C123.745 52.7354 123.293 52.8745 122.945 53.1526C122.598 53.4306 122.424 53.8014 122.424 54.2648V55.1686C122.424 55.6088 122.609 55.968 122.98 56.2461C123.374 56.5241 123.884 56.6632 124.509 56.6632H126.386ZM138.69 42.6554H143.07V44.741C143.58 44.0226 144.24 43.4549 145.051 43.0378C145.862 42.5975 146.673 42.3774 147.484 42.3774H149.57C151.424 42.3774 152.907 42.9567 154.019 44.1153C155.154 45.2739 155.722 46.8033 155.722 48.7034V60H150.995V48.8772C150.995 48.1589 150.798 47.5796 150.404 47.1393C150.033 46.699 149.547 46.4789 148.944 46.4789H146.859C146.048 46.4789 145.318 46.7801 144.669 47.3826C144.043 47.9619 143.626 48.7266 143.418 49.6767V60H138.69V42.6554ZM165.024 60.2781C163.216 60.2781 161.757 59.8262 160.644 58.9225C159.532 58.0188 158.976 56.8254 158.976 55.3423V54.0563C158.976 52.5964 159.555 51.4262 160.714 50.5457C161.872 49.6419 163.402 49.1901 165.302 49.1901H167.422C168.025 49.1901 168.674 49.2712 169.369 49.4334C170.064 49.5956 170.701 49.8157 171.28 50.0938V48.2863C171.28 47.707 171.083 47.2436 170.69 46.896C170.319 46.5252 169.821 46.3399 169.195 46.3399H166.206C165.557 46.3399 165.035 46.4905 164.642 46.7917C164.248 47.093 164.051 47.4985 164.051 48.0083H159.462C159.462 46.3167 160.077 44.9611 161.305 43.9415C162.556 42.8988 164.19 42.3774 166.206 42.3774H169.195C171.234 42.3774 172.879 42.9219 174.131 44.011C175.382 45.077 176.008 46.5021 176.008 48.2863V60H171.628V57.9145C171.072 58.6328 170.388 59.2121 169.577 59.6524C168.766 60.0695 167.967 60.2781 167.179 60.2781H165.024ZM167.526 56.6632C168.384 56.6632 169.149 56.443 169.821 56.0028C170.493 55.5625 170.979 54.9716 171.28 54.2301V53.6392C170.91 53.3611 170.388 53.141 169.716 52.9788C169.067 52.8166 168.372 52.7354 167.631 52.7354H165.441C164.885 52.7354 164.433 52.8745 164.085 53.1526C163.738 53.4306 163.564 53.8014 163.564 54.2648V55.1686C163.564 55.6088 163.749 55.968 164.12 56.2461C164.514 56.5241 165.024 56.6632 165.65 56.6632H167.526ZM186.574 67.056C184.72 67.056 183.179 66.523 181.951 65.4571C180.723 64.4143 180.039 63.0356 179.9 61.3208H184.558C184.604 61.8306 184.813 62.2361 185.183 62.5374C185.554 62.8618 186.018 63.024 186.574 63.024H189.702C190.42 63.024 191 62.7228 191.44 62.1203C191.903 61.541 192.135 60.7763 192.135 59.8262V58.1926C191.672 58.7023 191.104 59.1079 190.432 59.4091C189.783 59.7103 189.157 59.861 188.555 59.861H186.157C184.048 59.861 182.345 59.2353 181.047 57.984C179.773 56.7327 179.135 55.0874 179.135 53.0483V49.5029C179.135 48.0894 179.437 46.8497 180.039 45.7837C180.642 44.6946 181.487 43.8604 182.576 43.2811C183.666 42.6786 184.917 42.3774 186.33 42.3774H188.346C189.134 42.3774 189.899 42.5628 190.64 42.9335C191.405 43.3043 192.019 43.7909 192.483 44.3934V42.6554H196.862V59.8262C196.862 61.2629 196.561 62.5258 195.958 63.6149C195.379 64.704 194.545 65.5498 193.456 66.1523C192.367 66.7548 191.115 67.056 189.702 67.056H186.574ZM188.868 55.8637C189.748 55.8637 190.49 55.5046 191.092 54.7862C191.695 54.0447 192.042 53.083 192.135 51.9012V49.5029C192.042 48.576 191.73 47.8345 191.197 47.2783C190.664 46.7222 189.992 46.4441 189.181 46.4441H186.747C185.89 46.4441 185.195 46.757 184.662 47.3826C184.129 48.0083 183.862 48.8309 183.862 49.8505V52.7007C183.862 53.6508 184.106 54.4154 184.592 54.9948C185.079 55.5741 185.705 55.8637 186.469 55.8637H188.868ZM207.653 60.2781C206.193 60.2781 204.895 60.0116 203.76 59.4786C202.648 58.9225 201.779 58.1578 201.153 57.1846C200.527 56.1881 200.215 55.0527 200.215 53.7782V49.2943C200.215 47.9272 200.527 46.7222 201.153 45.6794C201.779 44.6367 202.648 43.8257 203.76 43.2463C204.895 42.667 206.193 42.3774 207.653 42.3774H210.434C212.658 42.3774 214.442 43.003 215.786 44.2543C217.13 45.5057 217.802 47.1741 217.802 49.2596V52.944H204.942V53.7782C204.942 54.5429 205.185 55.157 205.672 55.6204C206.158 56.0839 206.819 56.3156 207.653 56.3156H210.364C211.175 56.3156 211.824 56.1418 212.311 55.7942C212.82 55.4234 213.075 54.9484 213.075 54.3691H217.733C217.733 55.5277 217.42 56.5589 216.794 57.4626C216.169 58.3663 215.288 59.0615 214.153 59.5481C213.04 60.0348 211.754 60.2781 210.295 60.2781H207.653ZM213.145 49.5377V49.2596C213.145 48.3559 212.901 47.6375 212.415 47.1046C211.928 46.5484 211.279 46.2703 210.468 46.2703H207.653C206.819 46.2703 206.147 46.56 205.637 47.1393C205.127 47.7186 204.872 48.4833 204.872 49.4334V49.5377H213.145ZM221.004 42.6554H225.384V44.88C225.824 44.208 226.45 43.6634 227.261 43.2463C228.095 42.8061 228.964 42.5859 229.868 42.5859H232.232V46.6874H229.868C228.64 46.6874 227.643 47.0582 226.879 47.7997C226.114 48.5412 225.732 49.4913 225.732 50.6499V60H221.004V42.6554Z" fill="black"/>
</svg>
